<svg id="Capa_1" data-name="Capa 1" xmlns="http://www.w3.org/2000/svg" xmlns:xlink="http://www.w3.org/1999/xlink" viewBox="0 0 160.45 150.67"><defs><style>.cls-1{fill:url(#Blanco_Negro);}.cls-2,.cls-3{fill:#e20613;}.cls-3{font-size:19.66px;font-family:HandelGothic, Handel Gothic;}.cls-4{fill:none;stroke:#e30613;stroke-miterlimit:10;stroke-width:2px;}</style><linearGradient id="Blanco_Negro" y1="75.34" x2="160.45" y2="75.34" gradientUnits="userSpaceOnUse"><stop offset="0" stop-color="#fff"/><stop offset="1" stop-color="#1d1d1b"/></linearGradient></defs><title>logotipo</title><rect class="cls-1" width="160.45" height="150.67" rx="12" ry="12"/><path class="cls-2" d="M365.62,55.84a7.44,7.44,0,0,1,4.44.72,8.49,8.49,0,0,1,2.18,1.74,12.19,12.19,0,0,1,1.8,2.75,24.61,24.61,0,0,1,1.52,4.8,11.32,11.32,0,0,0,1.28,3.3,12.53,12.53,0,0,0,4.61,4.12,10,10,0,0,1-3.7-.36A9.28,9.28,0,0,1,374,71a11.34,11.34,0,0,1-2.62-4.67c-.47-1.28-.52-2.68-.95-4a11.44,11.44,0,0,0-1.12-2.68,12.88,12.88,0,0,0-3.73-3.77Z" transform="translate(-320.54 -4.21)"/><path class="cls-2" d="M355.14,39.92a46.8,46.8,0,0,0,1.66,13.15,29.91,29.91,0,0,0,3.52,8.55A28,28,0,0,0,366,67.79a34.39,34.39,0,0,0,9.3,5.3,49.82,49.82,0,0,0,9.21,2.44,28.83,28.83,0,0,1,6.23,1.69,17.18,17.18,0,0,1,4.46,2.68,13,13,0,0,1,3,3.79c1,2.12,1,4.56,1.07,6.92s-.3,4.49-.09,6.72a21.15,21.15,0,0,0,1.54,6.74,11.79,11.79,0,0,0,2.16,3.23,8.61,8.61,0,0,1-4.86-3,10,10,0,0,1-1.37-2.43,15.08,15.08,0,0,1-1-4.49c-.25-2.43.41-4.94,0-7.35a12.77,12.77,0,0,0-2.27-6.09,12.48,12.48,0,0,0-4.5-3.24,22.33,22.33,0,0,0-5.07-1.54c-2.19-.49-4.37-.83-6.51-1.44a36.82,36.82,0,0,1-12.64-5.91A28.82,28.82,0,0,1,357,63.22a27.67,27.67,0,0,1-3.36-11,29.5,29.5,0,0,1,1.43-12.34" transform="translate(-320.54 -4.21)"/><path class="cls-2" d="M359.14,70.14a24.54,24.54,0,0,0,7.48,6.9,28.62,28.62,0,0,0,8,3c3.53.85,7.26.6,10.85,1.17a14.3,14.3,0,0,1,6.39,2.86,11.69,11.69,0,0,1,2.91,3.16,38.26,38.26,0,0,0-7.86-2.35c-3.19-.56-6.44-.29-9.67-.63a29.52,29.52,0,0,1-5.82-1.06,19,19,0,0,1-6.46-3,15.29,15.29,0,0,1-5.78-10.06Z" transform="translate(-320.54 -4.21)"/><path class="cls-2" d="M375.65,91.79a9.2,9.2,0,0,0,3.82,2.68,11.63,11.63,0,0,0,4.33.47,16.22,16.22,0,0,1,4.68.43A10.58,10.58,0,0,1,391.87,97a7.56,7.56,0,0,1,2.05,2.21,6.67,6.67,0,0,1,.81,4.21,13.29,13.29,0,0,0-5.61-4c-2.39-.85-5.14,0-7.58-.69a8.58,8.58,0,0,1-4.25-2.24,6.7,6.7,0,0,1-1.64-4.75Z" transform="translate(-320.54 -4.21)"/><path class="cls-2" d="M387.87,66.08c.75-1,1.54-1.92,2.34-2.86a60.52,60.52,0,0,1,5.87-6.11,36.1,36.1,0,0,1,4.86-3.77,15.94,15.94,0,0,1,4.21-2.05,9.22,9.22,0,0,1,2.75-.38A8.17,8.17,0,0,1,414,54a6.17,6.17,0,0,1,4.84,2,6.08,6.08,0,0,1,1.64,3.88A7.71,7.71,0,0,0,416.39,57a7.63,7.63,0,0,0-4.05-.11,6.86,6.86,0,0,0-3-2.06,8.49,8.49,0,0,0-3.89-.18c-2.41.3-4.44,1.81-6.48,3.14a45.45,45.45,0,0,0-6.07,5.12c-1.6,1.44-3.12,3-4.62,4.48Z" transform="translate(-320.54 -4.21)"/><path class="cls-2" d="M400.6,59.45a22.86,22.86,0,0,0-5.87,4.67A23.2,23.2,0,0,0,391,69.69a17.57,17.57,0,0,0,6.08-4.31,17.35,17.35,0,0,0,3.52-5.93Z" transform="translate(-320.54 -4.21)"/><path class="cls-2" d="M400.06,64.21a28.67,28.67,0,0,0-5.8,6.29,29.31,29.31,0,0,0-2.87,5.39,17.81,17.81,0,0,0,5.41-4.58,17.37,17.37,0,0,0,3.26-7.1Z" transform="translate(-320.54 -4.21)"/><path class="cls-2" d="M400.88,69.69a59.39,59.39,0,0,0-5.62,5.48c-.82.9-1.59,1.82-2.34,2.77a10.37,10.37,0,0,0,8-8.25Z" transform="translate(-320.54 -4.21)"/><path class="cls-2" d="M414.25,60.69a4.07,4.07,0,0,0-3.73,1.47,3.6,3.6,0,0,0-.84,3.2,4.37,4.37,0,0,0,1.57,2,8.57,8.57,0,0,1,2.86,3.51,7.19,7.19,0,0,1-.34,5.57,11.82,11.82,0,0,0-.93-2.66,13.42,13.42,0,0,0-1.59-2.39c-.87-1.08-2-1.87-3-2.86A9.22,9.22,0,0,1,407,67a5.65,5.65,0,0,1-.7-2.39,5.31,5.31,0,0,1,1.61-3.72,5.72,5.72,0,0,1,1.64-1.17,4.3,4.3,0,0,1,2.39-.36,4,4,0,0,1,2.32,1.37Z" transform="translate(-320.54 -4.21)"/><path class="cls-2" d="M402.81,56.77a1.15,1.15,0,0,0,.36.4,1.16,1.16,0,0,0,1.05.14,2,2,0,0,1,.64-1.56,2.19,2.19,0,0,1,2-.56,2.26,2.26,0,0,1,1.07.61,5.25,5.25,0,0,1,1.32.7,5.64,5.64,0,0,1,1.57,1.76,7,7,0,0,1,.5,1.15,3.41,3.41,0,0,1-2.53-.09,3.24,3.24,0,0,1-1.93-2.44,1.83,1.83,0,0,0-1.18,0,1.67,1.67,0,0,0-.84.75,1.19,1.19,0,0,1-.64,1.15,1.26,1.26,0,0,1-1.41-2Z" transform="translate(-320.54 -4.21)"/><path class="cls-2" d="M440.81,55.84a7.38,7.38,0,0,0-4.41.72,8,8,0,0,0-2.18,1.74,12.19,12.19,0,0,0-1.8,2.75,24.61,24.61,0,0,0-1.52,4.8,11.32,11.32,0,0,1-1.28,3.3A13,13,0,0,1,425,73.27a10,10,0,0,0,3.7-.36,9.35,9.35,0,0,0,3.71-2A11.43,11.43,0,0,0,435,66.28c.48-1.28.53-2.68.94-4a12.9,12.9,0,0,1,1.13-2.68,12.58,12.58,0,0,1,3.71-3.77Z" transform="translate(-320.54 -4.21)"/><path class="cls-2" d="M451.3,39.92a46.06,46.06,0,0,1-1.64,13.15,29.66,29.66,0,0,1-3.53,8.55,27.7,27.7,0,0,1-5.68,6.17,34.39,34.39,0,0,1-9.3,5.3,49.82,49.82,0,0,1-9.21,2.44,28.77,28.77,0,0,0-6.24,1.69,17.29,17.29,0,0,0-4.45,2.68,13,13,0,0,0-3,3.79c-1,2.12-1,4.56-1.07,6.92s.3,4.49.07,6.72a21.14,21.14,0,0,1-1.53,6.74,10.7,10.7,0,0,1-2.16,3.23,8.6,8.6,0,0,0,4.87-3,10,10,0,0,0,1.37-2.43,14.77,14.77,0,0,0,1-4.49c.23-2.43-.43-4.94,0-7.35a12.88,12.88,0,0,1,2.28-6.09,12.48,12.48,0,0,1,4.5-3.24,22.18,22.18,0,0,1,5.07-1.54c2.16-.49,4.37-.83,6.51-1.44a36.82,36.82,0,0,0,12.64-5.91,28.82,28.82,0,0,0,7.67-8.54,27.32,27.32,0,0,0,3.34-11,29.49,29.49,0,0,0-1.41-12.34" transform="translate(-320.54 -4.21)"/><path class="cls-2" d="M447.32,70.14a25.19,25.19,0,0,1-7.49,6.9,28.38,28.38,0,0,1-8,3c-3.52.85-7.25.55-10.84,1.17a13.58,13.58,0,0,0-6.4,2.86,12.16,12.16,0,0,0-2.91,3.16,38.53,38.53,0,0,1,7.87-2.35c3.19-.56,6.44-.29,9.65-.63a29.58,29.58,0,0,0,5.84-1.06,19.31,19.31,0,0,0,6.46-3,15.41,15.41,0,0,0,5.78-10.06Z" transform="translate(-320.54 -4.21)"/><path class="cls-2" d="M452.73,66.08a20.16,20.16,0,0,1-5.87,13.75,23.05,23.05,0,0,1-9,5.3c-3.82,1.33-8.05.84-12.1,1.27-3,.29-6.18.56-8.75,2.16a14,14,0,0,0-5.26,5.82c3.46-1.87,5.82-3.45,11-4.13,3.12-.4,6.26-.45,9.4-.72,3.59-.29,7.25-.59,10.48-2.16a19.36,19.36,0,0,0,9-8.53,17.72,17.72,0,0,0,1.07-12.76" transform="translate(-320.54 -4.21)"/><path class="cls-2" d="M430.78,91.79a9.07,9.07,0,0,1-3.8,2.68,11.55,11.55,0,0,1-4.32.47,16.22,16.22,0,0,0-4.68.43A10.38,10.38,0,0,0,414.59,97a7.56,7.56,0,0,0-2,2.21,6.55,6.55,0,0,0-.82,4.21,13.38,13.38,0,0,1,5.6-4c2.41-.85,5.16,0,7.59-.69a8.34,8.34,0,0,0,4.26-2.24,6.59,6.59,0,0,0,1.61-4.75Z" transform="translate(-320.54 -4.21)"/><text class="cls-3" transform="translate(6 144.01) scale(1.01 1)">FENITEX S.A.S.</text><path class="cls-2" d="M435.11,94.33a8.91,8.91,0,0,1-1.53,3.24,5.55,5.55,0,0,1-3.1,2.37,17.16,17.16,0,0,1-3.3.83,31.87,31.87,0,0,1-3.91.27,18.07,18.07,0,0,0-3.38.31c-1.1.29-2.14.63-2.34.7a8.69,8.69,0,0,0-3.71,2.78,9.9,9.9,0,0,0-1.72,4.27,22,22,0,0,1,2.29-1.45,20.93,20.93,0,0,1,2.22-1,16.18,16.18,0,0,1,5.09-.88,21.73,21.73,0,0,0,6-.4,10.46,10.46,0,0,0,5.39-2.69,7.32,7.32,0,0,0,2.23-4.16C436.05,94.81,435.11,94.33,435.11,94.33Z" transform="translate(-320.54 -4.21)"/><path class="cls-2" d="M353.94,66.08a20.21,20.21,0,0,0,5.87,13.75,23.05,23.05,0,0,0,9,5.3c3.82,1.33,8.05.84,12.1,1.27,3.05.29,6.18.56,8.75,2.16A14,14,0,0,1,395,94.38a43.05,43.05,0,0,0-11-4.13c-3.07-.67-6.26-.45-9.4-.72-3.59-.29-7.25-.59-10.48-2.16a19.36,19.36,0,0,1-9-8.53,17.72,17.72,0,0,1-1.07-12.76" transform="translate(-320.54 -4.21)"/><path class="cls-2" d="M371.56,94.33a8.91,8.91,0,0,0,1.53,3.24,5.55,5.55,0,0,0,3.1,2.37,17.36,17.36,0,0,0,3.3.83,31.87,31.87,0,0,0,3.91.27,18,18,0,0,1,3.38.31c1.1.29,2.14.63,2.34.7a8.63,8.63,0,0,1,3.71,2.78,9.9,9.9,0,0,1,1.72,4.27,16.57,16.57,0,0,0-4.5-2.41,16.24,16.24,0,0,0-5.1-.88,21.73,21.73,0,0,1-6.05-.4,10.46,10.46,0,0,1-5.39-2.69,7.32,7.32,0,0,1-2.23-4.16C370.62,94.81,371.56,94.33,371.56,94.33Z" transform="translate(-320.54 -4.21)"/><circle class="cls-4" cx="81.78" cy="65.78" r="59.56"/></svg>